<?xml version="1.0" encoding="UTF-8"?>
<svg id="Layer_2" data-name="Layer 2" xmlns="http://www.w3.org/2000/svg" xmlns:xlink="http://www.w3.org/1999/xlink" viewBox="0 0 120.71 115.75">
  <defs>
    <style>
      .cls-1 {
        fill: url(#Degradado_sin_nombre_3);
      }

      .cls-2 {
        fill: #fff;
        opacity: .81;
        stroke: #f2f2f2;
        stroke-miterlimit: 10;
        stroke-width: 2px;
      }

      .cls-3 {
        fill: #19193f;
      }

      .cls-4 {
        fill: #ff2433;
      }

      .cls-5 {
        fill: #de071a;
      }
    </style>
    <linearGradient id="Degradado_sin_nombre_3" data-name="Degradado sin nombre 3" x1="-773.84" y1="1753.63" x2="-728.19" y2="1799.28" gradientTransform="translate(1637.64 -1064.49) rotate(32.07)" gradientUnits="userSpaceOnUse">
      <stop offset="0" stop-color="#fff800"/>
      <stop offset="1" stop-color="#ff7d00"/>
    </linearGradient>
  </defs>
  <g id="Layer_1-2" data-name="Layer 1">
    <g>
      <path class="cls-2" d="M22.06,1H98.65c11.63,0,21.06,9.43,21.06,21.06v45.16c0,11.63-9.43,21.06-21.06,21.06h-27.11s-32.99,25.63-32.99,25.63l-3.77-25.63h-12.73c-11.63,0-21.06-9.43-21.06-21.06V22.06c0-11.63,9.43-21.06,21.06-21.06Z"/>
      <g>
        <circle class="cls-1" cx="57.96" cy="42.2" r="32.28" transform="translate(-9.23 67.22) rotate(-56.49)"/>
        <path class="cls-3" d="M73.06,43.56c4.04,3.08,3.03,15.52-9.18,19.68-12.2,4.16-18.22-8.15-17.02-11.45,1.64-4.5,8.98-2.72,13.42-4.36,4.44-1.64,8.79-6.9,12.77-3.87Z"/>
        <path class="cls-4" d="M57.16,53.58c-2.02,2.7-3.05,6.11-2.95,9.47,2.59,1.17,5.82,1.5,9.68,.19,8.74-2.98,11.74-10.21,11.25-15.21-1.28-.4-2.61-.66-3.96-.75-5.33-.35-10.82,2.03-14.03,6.3Z"/>
        <g>
          <path class="cls-4" d="M44.13,22.05c-1.8,.14-3.32,1.43-4.46,2.83-2.42,3-1.61,8.07-1.61,8.07,0,0-2.1-2.12-3.33-2.97-1.94-1.34-4.66-1.46-6.71-.3-2.05,1.17-3.34,3.56-3.18,5.92,.23,3.43,3.15,6.05,6.13,7.77,2.24,1.29,9.64,4.15,12.12,4.85,3.52-4.61,7.05-12.4,6.88-18.19-.05-1.85-.33-3.75-1.29-5.34-.96-1.58-2.72-2.79-4.56-2.64Z"/>
          <path class="cls-5" d="M44.13,22.05c-.67,.05-1.3,.26-1.89,.58,1.54,.62,2.85,1.94,3.64,3.44,2.25,4.25,1.16,9.8-2.02,13.4-3.04,3.44-8.09,5.22-12.43,3.73-.97-.33-1.87-.82-2.74-1.36,.72,.57,1.5,1.08,2.28,1.53,2.24,1.29,9.64,4.15,12.12,4.85,3.52-4.61,7.05-12.4,6.88-18.19-.05-1.85-.33-3.75-1.29-5.34-.96-1.58-2.72-2.79-4.56-2.64Z"/>
        </g>
        <g>
          <path class="cls-4" d="M75.76,14.12c-1.75-.46-3.61,.25-5.14,1.21-3.27,2.04-4.17,7.09-4.17,7.09,0,0-1.29-2.7-2.16-3.9-1.39-1.91-3.92-2.91-6.24-2.49-2.32,.43-4.33,2.26-4.95,4.54-.91,3.32,.99,6.75,3.24,9.35,1.69,1.95,7.74,7.09,9.85,8.57,4.84-3.2,10.73-9.39,12.48-14.92,.56-1.77,.92-3.65,.54-5.46-.38-1.81-1.65-3.53-3.44-4Z"/>
          <path class="cls-5" d="M75.76,14.12c-.65-.17-1.31-.18-1.97-.07,1.25,1.09,2.05,2.77,2.3,4.45,.72,4.75-2.12,9.64-6.31,11.99-4,2.25-9.36,2.27-12.97-.57-.8-.63-1.49-1.39-2.14-2.18,.5,.78,1.06,1.52,1.65,2.2,1.69,1.95,7.74,7.09,9.85,8.57,4.84-3.2,10.73-9.39,12.48-14.92,.56-1.77,.92-3.65,.54-5.46-.38-1.81-1.65-3.53-3.44-4Z"/>
        </g>
      </g>
    </g>
  </g>
</svg>