<?xml version="1.0" encoding="UTF-8"?>
<svg id="Layer_2" data-name="Layer 2" xmlns="http://www.w3.org/2000/svg" xmlns:xlink="http://www.w3.org/1999/xlink" viewBox="0 0 130.17 124.74">
  <defs>
    <style>
      .cls-1 {
        fill: url(#Degradado_sin_nombre_6-2);
      }

      .cls-2 {
        fill: url(#Degradado_sin_nombre_6);
      }

      .cls-3 {
        fill: #fff;
        opacity: .81;
        stroke: #f2f2f2;
        stroke-miterlimit: 10;
        stroke-width: 2px;
      }
    </style>
    <linearGradient id="Degradado_sin_nombre_6" data-name="Degradado sin nombre 6" x1="41.71" y1="60.19" x2="57.16" y2="60.19" gradientUnits="userSpaceOnUse">
      <stop offset="0" stop-color="#0bf"/>
      <stop offset="1" stop-color="#005da7"/>
    </linearGradient>
    <linearGradient id="Degradado_sin_nombre_6-2" data-name="Degradado sin nombre 6" x1="61.24" y1="43.55" x2="100.09" y2="43.55" xlink:href="#Degradado_sin_nombre_6"/>
  </defs>
  <g id="Layer_1-2" data-name="Layer 1">
    <g>
      <path class="cls-3" d="M106.43,1H23.74C11.18,1,1,11.18,1,23.74v48.76c0,12.56,10.18,22.74,22.74,22.74h29.27l35.61,27.67,4.07-27.67h13.74c12.56,0,22.74-10.18,22.74-22.74V23.74c0-12.56-10.18-22.74-22.74-22.74Z"/>
      <g>
        <rect class="cls-2" x="41.71" y="44.29" width="15.45" height="31.8" rx="3.11" ry="3.11"/>
        <path class="cls-1" d="M95.73,47.3h-.55c2.7,0,4.92-2.21,4.92-4.92,0-2.7-2.21-4.92-4.92-4.92h-15.77c1.95-3.06,4.58-7.95,4.58-11.94,0-6.32-3.46-9.83-5.72-10.23-2.26-.4-3.91,.8-4.56,2.71-.65,1.91,.5,5.52,.06,6.81-.69,1.99-4.17,4.65-8.88,10.7-4.21,5.4-3.61,11.79-3.61,11.79v8.73s0,8.73,0,8.73v4.06c0,1.68,1.38,3.06,3.06,3.06h29.29c1.96,0,3.56-1.6,3.56-3.56,0-1.96-1.6-3.56-3.56-3.56h.5c2.4,0,4.36-1.96,4.36-4.36,0-2.4-1.96-4.36-4.36-4.36h1.6c2.4,0,4.36-1.96,4.36-4.36,0-2.4-1.96-4.36-4.36-4.36Z"/>
      </g>
    </g>
  </g>
</svg>